<svg width="64" height="30" viewBox="0 0 64 30" fill="none" xmlns="http://www.w3.org/2000/svg">
<path d="M0.4 4.72L0.8 0.999998H7.12C8.24 0.999998 9.14667 1.34667 9.84 2.04C10.5333 2.70667 10.88 3.6 10.88 4.72V17.24C10.88 17.8267 10.76 18.36 10.52 18.84C10.28 19.2933 9.96 19.68 9.56 20L12.12 29H8.28L6 20.96H4.8V29H1V4.72H0.4ZM6.88 4.72H4.8V17.24H6.88C7.01333 17.24 7.08 17.1733 7.08 17.04V4.92C7.08 4.78666 7.01333 4.72 6.88 4.72ZM22.9188 25.44C22.9188 26.56 22.5721 27.4667 21.8788 28.16C21.1854 28.8267 20.2788 29.16 19.1588 29.16H16.2788C15.1588 29.16 14.2521 28.8267 13.5588 28.16C12.8654 27.4667 12.5188 26.56 12.5188 25.44V4.56C12.5188 3.44 12.8654 2.54666 13.5588 1.88C14.2521 1.18666 15.1588 0.839998 16.2788 0.839998H19.1588C20.2788 0.839998 21.1854 1.18666 21.8788 1.88C22.5721 2.54666 22.9188 3.44 22.9188 4.56V25.44ZM16.5188 4.56C16.3854 4.56 16.3188 4.62667 16.3188 4.76V25.24C16.3188 25.3733 16.3854 25.44 16.5188 25.44H18.9188C19.0521 25.44 19.1188 25.3733 19.1188 25.24V4.76C19.1188 4.62667 19.0521 4.56 18.9188 4.56H16.5188ZM31.9016 0.999998H35.7016L33.2216 29H26.5816L24.1016 0.999998H27.9016L29.9016 23.12L31.9016 0.999998ZM44.9644 16.64V29H41.1644V16.64L36.4844 0.999998H40.2844L43.0844 10.32L45.8444 0.999998H49.6444L44.9644 16.64ZM59.2391 0.999998H63.0391V29H59.2391L54.8391 11.88V29H51.0391V4.72H50.4391L50.8391 0.999998H55.0391L59.4791 18.8L59.2391 0.999998Z" fill="#F1F1F1"/>
</svg>
